<?xml version="1.0" standalone="no"?>
<!DOCTYPE svg PUBLIC "-//W3C//DTD SVG 20010904//EN"
 "http://www.w3.org/TR/2001/REC-SVG-20010904/DTD/svg10.dtd">
<svg version="1.0" xmlns="http://www.w3.org/2000/svg"
 width="512.000000pt" height="512.000000pt" viewBox="0 0 512.000000 512.000000"
 preserveAspectRatio="xMidYMid meet">
<metadata>
Created by potrace 1.11, written by Peter Selinger 2001-2013
</metadata>
<g transform="translate(0.000000,512.000000) scale(0.100000,-0.100000)"
fill="#000000" stroke="none">
<path d="M2320 4879 c-903 -92 -1685 -721 -1969 -1584 -299 -910 -19 -1907
708 -2517 983 -824 2436 -705 3269 267 780 909 742 2253 -88 3129 -484 511
-1210 777 -1920 705z m510 -749 c224 -37 462 -135 650 -268 122 -86 296 -260
382 -382 338 -476 385 -1108 122 -1635 -75 -151 -169 -280 -299 -410 -252
-252 -550 -402 -905 -455 -121 -18 -358 -14 -490 9 -228 39 -463 136 -650 269
-122 86 -296 260 -382 382 -331 467 -383 1095 -134 1613 247 514 763 863 1326
896 144 8 244 3 380 -19z"/>
<path d="M2445 3150 c-115 -23 -237 -92 -321 -181 -174 -186 -212 -450 -97
-682 46 -91 160 -208 250 -255 133 -70 286 -88 427 -52 113 29 190 73 276 160
87 86 131 163 160 276 36 141 18 294 -52 427 -42 81 -164 203 -245 245 -117
61 -277 86 -398 62z m445 -150 c22 -11 52 -39 67 -62 24 -36 28 -52 28 -113 0
-59 -4 -78 -24 -107 -38 -54 -84 -81 -151 -86 -110 -8 -189 52 -212 161 -10
46 -9 61 5 99 46 119 172 166 287 108z"/>
</g>
</svg>
